PathFileType	4	(X/Y/Z)	AB05\squats_2.trc
DataRate	CameraRate	NumFrames	NumMarkers	Units	OrigDataRate	OrigDataStartFrame	OrigNumFrames
200.000000	200.000000	4	35	mm	200.000000	252	336
Frame#	Time	C7			LSHO			STRN			LASI			RASI			LPSI			RPSI			LGTR			RGTR			LTHC			LTHL			LTHR			LKNE			LMKNE			LSHC			LSHL			LSHR			LANK			LMANK			LMT1			LMT5			LCAL			RTHC			RTHL			RTHR			RKNE			RMKNE			RSHC			RSHL			RSHR			RANK			RMANK			RMT1			RMT5			RCAL			
		X1	Y1	Z1	X2	Y2	Z2	X3	Y3	Z3	X4	Y4	Z4	X5	Y5	Z5	X6	Y6	Z6	X7	Y7	Z7	X8	Y8	Z8	X9	Y9	Z9	X10	Y10	Z10	X11	Y11	Z11	X12	Y12	Z12	X13	Y13	Z13	X14	Y14	Z14	X15	Y15	Z15	X16	Y16	Z16	X17	Y17	Z17	X18	Y18	Z18	X19	Y19	Z19	X20	Y20	Z20	X21	Y21	Z21	X22	Y22	Z22	X23	Y23	Z23	X24	Y24	Z24	X25	Y25	Z25	X26	Y26	Z26	X27	Y27	Z27	X28	Y28	Z28	X29	Y29	Z29	X30	Y30	Z30	X31	Y31	Z31	X32	Y32	Z32	X33	Y33	Z33	X34	Y34	Z34	X35	Y35	Z35	

253	2.17	-2194.628618799537	1175.832357514502	2513.958420456394	-2107.146133137237	1093.87423468382	2388.858580628912	-2129.119624609626	1022.036258487996	2517.273001431486	-2462.55980071364	761.6678878181971	2379.156191471709	-2448.314637334841	750.5977703993987	2640.878299859824	-2602.501751990716	860.3267269473453	2456.363296659095	-2579.215846712798	865.196805657345	2575.004253185912	-2524.581730248161	728.9885471519284	2300.560551841951	-2553.637537645424	727.926424118116	2710.390470679433	-2370.588051434237	723.1587127657361	2369.250051520647	-2506.803740796082	585.3682393714818	2345.7346931043	-2426.094687741204	686.5323199010281	2305.090905042789	-2217.740546949456	499.9114104042669	2278.359421503489	-2200.716550600188	494.1435194516627	2402.951817960476	-2312.045874150038	387.9565287760129	2279.803445643962	-2243.318219164337	240.3352812870254	2315.456968633755	-2239.121975915373	325.0019660020653	2386.676569107597	-2357.371129470423	108.0216826562763	2288.218614103303	-2326.32028104139	109.5561264868247	2382.309272622074	-2199.907278106253	65.9052418345198	2349.266733176812	-2249.78606704541	54.6647112388721	2234.591273335697	-2420.814159467167	71.46845027601003	2347.14302134217	-2490.904763027685	568.6772802069681	2671.993710064668	-2419.015226367989	670.7484837413757	2726.654472142184	-2358.966230545789	709.7445936592254	2648.131259517036	-2226.098778255013	490.6053610524386	2750.959326943118	-2183.855776176015	495.651370538441	2625.622717111716	-2243.505082978188	252.2965382638085	2708.379860592505	-2287.065469398321	402.1234339468841	2750.711423174494	-2225.414447171576	358.9520619311523	2639.331207914414	-2364.056838598143	102.3505118359084	2711.349607781662	-2325.587234173405	108.6457505637744	2621.831552543365	-2209.68426948488	64.50509818793579	2655.453988601775	-2245.522210372812	61.49868931069778	2762.718781729387	-2429.711615510531	73.13814449453432	2656.029755223083	
254	2.175	-2195.708773221026	1180.995610736816	2513.858045534705	-2107.960594479471	1099.258769164254	2388.554361553913	-2129.6037688938	1027.480967507506	2517.236553112838	-2461.322796091699	764.5963854837527	2378.856288489746	-2447.251729780096	753.7294439291763	2640.847429864216	-2601.640555792299	863.2168325695925	2456.160892173496	-2578.460182307334	868.2290394206792	2574.852161891968	-2523.532476859874	731.2552646113676	2300.631939213008	-2552.635820430768	730.5074593675096	2710.074916485886	-2369.003871135088	724.6078008610667	2368.744114923636	-2506.19844300744	587.6009170389733	2345.898825044302	-2425.000180183249	688.1479927771801	2304.853941976037	-2217.820843890715	500.094956736828	2278.203164282164	-2200.797775601555	494.3517685536698	2402.769218861682	-2312.168701908429	388.0121264745584	2279.634227207352	-2243.400718138082	240.4071360078956	2315.402076356112	-2239.298928675616	325.1302689197526	2386.569599592945	-2357.382275323112	108.0088465944228	2288.168551636244	-2326.352064094713	109.5735418899447	2382.263389741726	-2199.904107734626	65.90642648583952	2349.259981602965	-2249.781221196901	54.66265485544097	2234.583688132576	-2420.818767031045	71.46759195896966	2347.127277850297	-2490.356309043167	570.9872240190593	2671.651708106324	-2417.923088427241	672.4941033485734	2726.571557609568	-2357.360957173747	711.2313985485524	2648.271520876481	-2226.123315816594	490.8333974168197	2750.765542085947	-2183.877241996471	495.7941971614226	2625.468977304589	-2243.573951918411	252.3847601121365	2708.296793251776	-2287.154808218257	402.2763124915087	2750.556790846218	-2225.551552049157	359.023983739209	2639.19786634637	-2364.071450493762	102.3626665212818	2711.384939340691	-2325.583206192443	108.6685094378363	2621.83461771563	-2209.687464255617	64.49442209387377	2655.45830306869	-2245.520633074133	61.48658351710872	2762.687573701386	-2429.722226473335	73.13856409562699	2656.041361358097	
255	2.18	-2196.818413965478	1186.254692545085	2513.76047870814	-2108.797432159067	1104.755828844887	2388.242249657877	-2130.101084811067	1033.038050773264	2517.198641905332	-2460.052060285758	767.5956412915853	2378.558515307261	-2446.144409434257	756.9246532823914	2640.806000650333	-2600.75286645253	866.1530126669079	2455.96274754136	-2577.673463278099	871.3074230235967	2574.70266216195	-2522.456238539925	733.5644207477847	2300.713975207572	-2551.588247279229	733.1276775623168	2709.749150652098	-2367.385389365728	726.0716493781871	2368.238891245277	-2505.571972826342	589.8768558987981	2346.07114833581	-2423.87723667098	689.791556820914	2304.618250346964	-2217.908434123845	500.2854001473216	2278.058152598499	-2200.885084482748	494.5655824178754	2402.596772904476	-2312.302885240519	388.0708111534433	2279.479730070353	-2243.489328459118	240.4816987663988	2315.354654689884	-2239.480490351188	325.2592805095178	2386.470086519363	-2357.393868133095	107.9964401469915	2288.120212686758	-2326.382961276815	109.5906264674384	2382.218104809495	-2199.900597896131	65.90755765663106	2349.252316552152	-2249.776855583259	54.66121913324312	2234.575693590747	-2420.823137157165	71.46695272130893	2347.111035765445	-2489.772692935374	573.336742431724	2671.298126549279	-2416.786579740255	674.2641010807077	2726.475271654941	-2355.717624332364	712.7283854550061	2648.392337599271	-2226.136602600414	491.0678881133671	2750.536877012258	-2183.895099997508	495.9363228839283	2625.278652879823	-2243.640436022875	252.4749073604694	2708.194120116458	-2287.240201355653	402.4351017291861	2750.372059025851	-2225.685046672479	359.0927659540109	2639.035954424279	-2364.083989054054	102.3769885671038	2711.415802364301	-2325.578700630598	108.6880664401522	2621.833482311474	-2209.69086200231	64.48191469476774	2655.462180772148	-2245.517961581099	61.47676105286276	2762.658109244155	-2429.731999299193	73.1385722955048	2656.052413998415	
256	2.185	-2197.957458028301	1191.607731650993	2513.665781378986	-2109.657750059708	1110.363522013992	2387.92216240675	-2130.611802745761	1038.705896293883	2517.159048419149	-2458.747862155748	770.6660444756998	2378.264400832844	-2444.99169609919	760.1834771860056	2640.754590780861	-2599.838223299047	869.1350583030951	2455.769369257714	-2576.854891252039	874.431241055903	2574.556007499571	-2521.35215732995	735.9168649054923	2300.807098390704	-2550.494188124743	735.786898653958	2709.412964283214	-2365.733002974448	727.5494745115104	2367.736584096333	-2504.924404121822	592.1967821042647	2346.251737589152	-2422.725847139823	691.4633669720646	2304.384999267201	-2218.004580367271	500.4828687737506	2277.925479147452	-2200.97967234882	494.7849077141822	2402.435400349852	-2312.449513714119	388.1326848285161	2279.340419740732	-2243.584712564871	240.5590350526805	2315.314791423087	-2239.667563197143	325.389000525686	2386.378715879995	-2357.406042343386	107.9844076912648	2288.073352907365	-2326.413028158422	109.6074870100527	2382.173307119304	-2199.896921557957	65.90883989865333	2349.243799305345	-2249.77304547324	54.66034663009947	2234.56722509597	-2420.827464557648	71.46639924389797	2347.094295191732	-2489.153887238363	575.7254364311104	2670.933286996035	-2415.605523640642	676.0581254716877	2726.36540952221	-2354.036513633162	714.2353283776961	2648.492846406552	-2226.139459846554	491.3090298415139	2750.27294681449	-2183.910407443557	496.0780836136209	2625.05124051034	-2243.704787907319	252.5672501967703	2708.071522551111	-2287.322568838103	402.5998796221073	2750.156815375924	-2225.815740448559	359.1586454629994	2638.845037489398	-2364.094559193438	102.3933951558011	2711.441966716788	-2325.574083340857	108.704188036225	2621.828405022204	-2209.69439956763	64.46768550017926	2655.465507311881	-2245.514172611785	61.46941286972747	2762.630563161506	-2429.741010166477	73.13819016379971	2656.063001451944	
